<svg viewBox="0 0 20 20" fill="none" xmlns="http://www.w3.org/2000/svg">
    <path
        d="M13.9375 16.25C13.7708 16.1806 13.6147 16.1078 13.4692 16.0317C13.3236 15.9556 13.1742 15.8617 13.0208 15.75L12.125 16.0209C12.0278 16.0486 11.9375 16.0453 11.8542 16.0109C11.7708 15.9764 11.7014 15.9172 11.6458 15.8334L11.1458 15C11.0903 14.9167 11.0764 14.8264 11.1042 14.7292C11.1319 14.632 11.1806 14.5486 11.25 14.4792L11.9375 13.875C11.9097 13.7084 11.8958 13.5278 11.8958 13.3334C11.8958 13.1389 11.9097 12.9584 11.9375 12.7917L11.25 12.1875C11.1806 12.1181 11.1319 12.0347 11.1042 11.9375C11.0764 11.8403 11.0903 11.75 11.1458 11.6667L11.6458 10.8334C11.7014 10.75 11.7708 10.6911 11.8542 10.6567C11.9375 10.6222 12.0278 10.6186 12.125 10.6459L13.0208 10.9167C13.1736 10.8056 13.3231 10.712 13.4692 10.6359C13.6153 10.5597 13.7714 10.4867 13.9375 10.4167L14.125 9.50002C14.1528 9.4028 14.1981 9.3228 14.2608 9.26002C14.3236 9.19724 14.4103 9.16613 14.5208 9.16669H15.5208C15.6319 9.16669 15.7189 9.19808 15.7817 9.26085C15.8444 9.32363 15.8894 9.40335 15.9167 9.50002L16.1042 10.4167C16.2708 10.4861 16.4272 10.5592 16.5733 10.6359C16.7194 10.7125 16.8686 10.8061 17.0208 10.9167L17.9167 10.6459C18.0139 10.6181 18.1042 10.6217 18.1875 10.6567C18.2708 10.6917 18.3403 10.7506 18.3958 10.8334L18.8958 11.6667C18.9514 11.75 18.9653 11.8403 18.9375 11.9375C18.9097 12.0347 18.8611 12.1181 18.7917 12.1875L18.1042 12.7917C18.1319 12.9584 18.1458 13.1389 18.1458 13.3334C18.1458 13.5278 18.1319 13.7084 18.1042 13.875L18.7917 14.4792C18.8611 14.5486 18.9097 14.632 18.9375 14.7292C18.9653 14.8264 18.9514 14.9167 18.8958 15L18.3958 15.8334C18.3403 15.9167 18.2708 15.9759 18.1875 16.0109C18.1042 16.0459 18.0139 16.0492 17.9167 16.0209L17.0208 15.75C16.8681 15.8611 16.7189 15.955 16.5733 16.0317C16.4278 16.1084 16.2714 16.1811 16.1042 16.25L15.9167 17.1667C15.8889 17.2639 15.8439 17.3439 15.7817 17.4067C15.7194 17.4695 15.6325 17.5006 15.5208 17.5H14.5208C14.4097 17.5 14.3231 17.4689 14.2608 17.4067C14.1986 17.3445 14.1533 17.2645 14.125 17.1667L13.9375 16.25ZM15.0208 15C15.4792 15 15.8717 14.837 16.1983 14.5109C16.525 14.1847 16.6881 13.7922 16.6875 13.3334C16.6869 12.8745 16.5239 12.4822 16.1983 12.1567C15.8728 11.8311 15.4803 11.6678 15.0208 11.6667C14.5614 11.6656 14.1692 11.8289 13.8442 12.1567C13.5192 12.4845 13.3558 12.8767 13.3542 13.3334C13.3525 13.79 13.5158 14.1825 13.8442 14.5109C14.1725 14.8392 14.5647 15.0022 15.0208 15ZM4.16667 16.6667C3.70833 16.6667 3.31611 16.5036 2.99 16.1775C2.66389 15.8514 2.50056 15.4589 2.5 15V3.33335C2.5 2.87502 2.66333 2.4828 2.99 2.15669C3.31667 1.83058 3.70889 1.66724 4.16667 1.66669H15.8333C16.2917 1.66669 16.6842 1.83002 17.0108 2.15669C17.3375 2.48335 17.5006 2.87558 17.5 3.33335V6.68752C17.5 6.92363 17.42 7.11808 17.26 7.27085C17.1 7.42363 16.9022 7.50002 16.6667 7.50002C16.4311 7.50002 16.2333 7.42002 16.0733 7.26002C15.9133 7.10002 15.8333 6.90224 15.8333 6.66669V3.33335H4.16667V10.8334H7.125C7.29167 10.8334 7.4375 10.8717 7.5625 10.9484C7.6875 11.025 7.78472 11.1256 7.85417 11.25C8.00694 11.5 8.17722 11.7084 8.365 11.875C8.55278 12.0417 8.75056 12.1736 8.95833 12.2709C9.04167 12.3125 9.11111 12.375 9.16667 12.4584C9.22222 12.5417 9.24306 12.632 9.22917 12.7292C9.17361 13.257 9.18417 13.7742 9.26083 14.2809C9.3375 14.7875 9.48667 15.2772 9.70833 15.75C9.80556 15.9584 9.79861 16.1634 9.6875 16.365C9.57639 16.5667 9.40972 16.6672 9.1875 16.6667H4.16667Z"
        fill="currentColor" />
</svg>