<svg width="20.000000" height="20.000000" viewBox="0 0 20 20" fill="none" xmlns="http://www.w3.org/2000/svg" xmlns:xlink="http://www.w3.org/1999/xlink">
	<desc>
			Created with Pixso.
	</desc>
	<defs/>
	<rect id="check-server" rx="0.000000" width="19.000000" height="19.000000" transform="translate(0.500000 0.500000)" fill="#FFFFFF" fill-opacity="0"/>
	<path id="Vector" d="M19.46 3.68C19.46 2.62 18.59 1.71 17.5 1.71L2.5 1.71C1.43 1.71 0.53 2.59 0.53 3.68L0.53 7.56C0.53 8.03 0.68 8.46 0.96 8.81C0.68 9.15 0.53 9.56 0.53 10.03L0.53 14C0.53 15.06 1.37 15.9 2.43 15.9L11.75 15.9C12.12 15.9 12.46 15.59 12.46 15.18C12.46 14.78 12.15 14.46 11.75 14.46L2.46 14.46C2.18 14.46 1.96 14.25 1.96 13.96L1.96 10.03C1.96 9.75 2.18 9.53 2.46 9.53L2.5 9.53L17.5 9.53L17.53 9.53C17.81 9.53 18.03 9.75 18.03 10.03L18.03 12.81C18.03 13.18 18.34 13.53 18.75 13.53C19.15 13.53 19.46 13.21 19.46 12.81L19.46 10.06C19.46 9.59 19.31 9.18 19.03 8.84C19.31 8.5 19.46 8.06 19.46 7.59L19.46 3.68ZM2.5 8.12C2.18 8.12 1.93 7.87 1.93 7.56L1.93 3.68C1.93 3.37 2.18 3.12 2.5 3.12L17.5 3.12C17.81 3.12 18.06 3.37 18.06 3.68L18.06 7.56C18.06 7.87 17.81 8.12 17.5 8.12L2.5 8.12Z" fill="currentColor" fill-opacity="1.000000" fill-rule="nonzero"/>
	<path id="Vector" d="M5.03 4.87C4.65 4.87 4.31 5.18 4.31 5.59L4.31 5.62C4.31 6 4.62 6.34 5.03 6.34C5.43 6.34 5.74 6.03 5.74 5.62L5.74 5.56C5.74 5.18 5.43 4.87 5.03 4.87Z" fill="currentColor" fill-opacity="1.000000" fill-rule="nonzero"/>
	<path id="Vector" d="M15.65 4.9L13.62 4.9C13.24 4.9 12.9 5.21 12.9 5.62C12.9 6.03 13.21 6.34 13.62 6.34L15.65 6.34C16.03 6.34 16.37 6.03 16.37 5.62C16.37 5.21 16.06 4.9 15.65 4.9Z" fill="currentColor" fill-opacity="1.000000" fill-rule="nonzero"/>
	<path id="Vector" d="M4.34 11.96L4.34 12.03C4.34 12.4 4.65 12.75 5.06 12.75C5.46 12.75 5.78 12.43 5.78 12.03L5.78 11.96C5.78 11.59 5.46 11.25 5.06 11.25C4.65 11.25 4.34 11.56 4.34 11.96Z" fill="currentColor" fill-opacity="1.000000" fill-rule="nonzero"/>
	<path id="Vector" d="M17.71 14.84L15.56 16.56L15.06 15.87C14.84 15.56 14.4 15.5 14.09 15.71C13.78 15.93 13.71 16.37 13.93 16.68L14.87 17.96C14.99 18.12 15.15 18.21 15.34 18.25C15.37 18.25 15.4 18.25 15.43 18.25C15.59 18.25 15.74 18.18 15.87 18.09L18.62 15.93C18.93 15.68 18.96 15.25 18.74 14.93C18.46 14.65 18.03 14.59 17.71 14.84Z" fill="currentColor" fill-opacity="1.000000" fill-rule="nonzero"/>
</svg>
