<svg width="20" height="19" viewBox="0 0 20 19" fill="none" xmlns="http://www.w3.org/2000/svg">
    <path fill-rule="evenodd" clip-rule="evenodd"
        d="M16 0H8C6.89543 0 6 0.895431 6 2V10C6 10.3643 6.09739 10.7058 6.26756 11H4C1.79086 11 0 12.7909 0 15C0 17.2091 1.79086 19 4 19H16C18.2091 19 20 17.2091 20 15C20 13.3292 18.9756 11.8977 17.5206 11.2992C17.8195 10.9497 18 10.4959 18 10V2C18 0.895431 17.1046 0 16 0ZM16 1.6H15.1V8.58963L12 6.52296L8.90002 8.58963V1.6H8C7.77909 1.6 7.6 1.77909 7.6 2V10C7.6 10.2209 7.77909 10.4 8 10.4H16C16.2209 10.4 16.4 10.2209 16.4 10V2C16.4 1.77909 16.2209 1.6 16 1.6ZM10.5 1.6H13.5V5.6L12 4.6L10.5 5.6V1.6ZM7.20029 12.6H12.7997C12.2976 13.2685 12 14.0995 12 15C12 15.9005 12.2976 16.7315 12.7997 17.4H7.20029C7.70244 16.7315 8 15.9005 8 15C8 14.0995 7.70244 13.2685 7.20029 12.6ZM13.6 15C13.6 13.6745 14.6745 12.6 16 12.6C17.3255 12.6 18.4 13.6745 18.4 15C18.4 16.3255 17.3255 17.4 16 17.4C14.6745 17.4 13.6 16.3255 13.6 15ZM4 12.6C2.67452 12.6 1.6 13.6745 1.6 15C1.6 16.3255 2.67452 17.4 4 17.4C5.32548 17.4 6.4 16.3255 6.4 15C6.4 13.6745 5.32548 12.6 4 12.6Z"
        fill="currentColor" />
</svg>