<svg width="16.062500" height="18.906250" viewBox="0 0 16.0625 18.9062" fill="none" xmlns="http://www.w3.org/2000/svg" xmlns:xlink="http://www.w3.org/1999/xlink">
	<desc>
			Created with Pixso.
	</desc>
	<defs/>
	<path id="Vector" d="M14.62 1.9L8.59 0.09C8.21 -0.04 7.81 -0.04 7.43 0.09L1.43 1.9C0.59 2.15 0 2.93 0 3.81L0 11.09C0 13.4 2.15 15.43 4 16.75C5.15 17.59 6.34 18.25 7.12 18.65C7.4 18.84 7.71 18.9 8.03 18.9C8.34 18.9 8.65 18.84 8.93 18.68C9.71 18.28 10.87 17.62 12.06 16.78C13.87 15.46 16.06 13.4 16.06 11.12L16.06 3.81C16.06 2.93 15.46 2.15 14.62 1.9ZM14.65 11.12C14.65 12.46 13.43 14.06 11.25 15.65C10.15 16.43 9.06 17.06 8.31 17.46C8.15 17.56 7.93 17.56 7.78 17.46C7.03 17.09 5.93 16.46 4.84 15.65C2.65 14.06 1.43 12.46 1.43 11.12L1.43 3.81C1.43 3.56 1.62 3.31 1.87 3.25L7.9 1.43C7.96 1.4 8.03 1.4 8.06 1.4C8.09 1.4 8.18 1.4 8.21 1.43L14.25 3.25C14.5 3.31 14.68 3.56 14.68 3.81L14.68 11.12L14.65 11.12Z" fill="currentColor" fill-opacity="1.000000" fill-rule="nonzero"/>
	<path id="Vector" d="M10.28 6.81L6.68 9.71L5.9 8.62C5.68 8.31 5.25 8.25 4.93 8.46C4.62 8.68 4.56 9.12 4.78 9.43L6 11.12C6.12 11.28 6.28 11.37 6.46 11.4C6.5 11.4 6.53 11.4 6.56 11.4C6.71 11.4 6.87 11.34 7 11.25L11.15 7.9C11.46 7.65 11.5 7.21 11.25 6.9C11.03 6.62 10.59 6.59 10.28 6.81Z" fill="currentColor" fill-opacity="1.000000" fill-rule="nonzero"/>
</svg>
