<svg viewBox="0 0 20 20" fill="none" xmlns="http://www.w3.org/2000/svg">
    <path
        d="M8.16704 17.1367L8.16698 17.1364C8.00359 16.5089 7.98557 15.7639 8.12363 15.0007C7.82292 14.878 7.57546 14.6505 7.42826 14.3589L8.16704 17.1367ZM8.16704 17.1367C8.38062 17.949 8.94815 18.85 10.0063 18.85C11.0643 18.85 11.6319 17.9491 11.8442 17.1378L11.8443 17.1378C12.0089 16.5075 12.027 15.7597 11.8864 14.9947C12.1815 14.871 12.424 14.6461 12.5692 14.3589L16.6202 6.35H16.875C17.3988 6.35 17.9012 6.14192 18.2715 5.77154C18.6419 5.40115 18.85 4.8988 18.85 4.375V1.875C18.85 1.68272 18.7736 1.49831 18.6377 1.36235C18.5017 1.22638 18.3173 1.15 18.125 1.15C17.9327 1.15 17.7483 1.22638 17.6123 1.36235C17.4764 1.49831 17.4 1.68272 17.4 1.875V4.375C17.4 4.51424 17.3447 4.64777 17.2462 4.74623C17.1478 4.84469 17.0142 4.9 16.875 4.9H3.125C2.98576 4.9 2.85223 4.84469 2.75377 4.74623C2.65531 4.64777 2.6 4.51424 2.6 4.375V1.875C2.6 1.68272 2.52362 1.49831 2.38765 1.36235C2.25169 1.22638 2.06728 1.15 1.875 1.15C1.68272 1.15 1.49831 1.22638 1.36235 1.36235C1.22638 1.49831 1.15 1.68272 1.15 1.875V4.375C1.15 4.8988 1.35808 5.40115 1.72846 5.77154C2.09885 6.14192 2.6012 6.35 3.125 6.35H3.37851L7.42822 14.3588L8.16704 17.1367ZM10.442 16.7696L10.442 16.7697C10.2884 17.3573 10.0574 17.4 10.0063 17.4C9.95513 17.4 9.72406 17.3573 9.5705 16.7697L9.57047 16.7696C9.45614 16.3342 9.44258 15.7413 9.58235 15.1H10.4302C10.5699 15.7413 10.5564 16.3342 10.442 16.7696ZM5.00387 6.35H14.9949L11.3035 13.65H8.69524L5.00387 6.35Z"
        fill="currentColor" stroke="#9CA3AF" stroke-width="0.2" />
</svg>