<svg width="17.898438" height="17.899902" viewBox="0 0 17.8984 17.8999" fill="none" xmlns="http://www.w3.org/2000/svg" xmlns:xlink="http://www.w3.org/1999/xlink">
	<desc>
			Created with Pixso.
	</desc>
	<defs/>
	<path id="Vector" d="M1.44 0.82C1.44 0.65 1.38 0.5 1.26 0.38C1.14 0.26 0.99 0.19 0.82 0.19C0.65 0.19 0.5 0.26 0.38 0.38C0.26 0.5 0.19 0.65 0.19 0.82L0.19 3.32C0.19 3.82 0.39 4.29 0.74 4.65C1.09 5 1.57 5.19 2.07 5.19L2.38 5.19L6.46 13.26C6.61 13.55 6.87 13.78 7.18 13.88C7.03 14.66 7.04 15.42 7.21 16.06C7.42 16.85 7.96 17.7 8.95 17.7C9.94 17.7 10.48 16.85 10.69 16.06C10.86 15.42 10.87 14.66 10.72 13.88C11.02 13.77 11.28 13.55 11.42 13.26L15.5 5.19L15.82 5.19C16.32 5.19 16.79 5 17.15 4.65C17.5 4.29 17.69 3.82 17.69 3.32L17.69 0.82C17.69 0.65 17.63 0.5 17.51 0.38C17.39 0.26 17.24 0.19 17.07 0.19C16.9 0.19 16.75 0.26 16.63 0.38C16.51 0.5 16.44 0.65 16.44 0.82L16.44 3.32C16.44 3.49 16.38 3.64 16.26 3.76C16.14 3.88 15.99 3.94 15.82 3.94L2.07 3.94C1.9 3.94 1.75 3.88 1.63 3.76C1.51 3.64 1.44 3.49 1.44 3.32L1.44 0.82ZM3.79 5.19L14.1 5.19L10.31 12.7L7.58 12.7L3.79 5.19ZM8.45 13.95L9.45 13.95C9.62 14.63 9.61 15.27 9.48 15.74C9.33 16.35 9.07 16.45 8.95 16.45C8.83 16.45 8.58 16.35 8.42 15.74C8.29 15.27 8.29 14.63 8.45 13.95Z" fill="currentColor" fill-opacity="1.000000" fill-rule="nonzero"/>
	<path id="Vector" d="M1.5 0.36C1.48 0.32 1.44 0.28 1.4 0.24C1.36 0.2 1.32 0.16 1.28 0.13C1.23 0.1 1.19 0.08 1.14 0.06C1.08 0.04 1.03 0.02 0.98 0.01C0.93 0 0.87 0 0.82 0C0.76 0 0.71 0 0.66 0.01C0.61 0.02 0.55 0.04 0.5 0.06C0.45 0.08 0.41 0.1 0.36 0.13C0.32 0.16 0.27 0.2 0.24 0.24C0.2 0.28 0.16 0.32 0.13 0.36C0.1 0.41 0.08 0.45 0.06 0.5C0.04 0.55 0.02 0.61 0.01 0.66C0 0.71 0 0.77 0 0.82L0 3.32C0 3.46 0.01 3.59 0.03 3.72C0.06 3.86 0.1 3.99 0.15 4.11C0.2 4.24 0.27 4.36 0.34 4.47C0.42 4.59 0.5 4.69 0.6 4.79C0.7 4.88 0.8 4.97 0.92 5.05C1.03 5.12 1.15 5.18 1.27 5.24C1.4 5.29 1.53 5.33 1.66 5.36C1.8 5.38 1.93 5.39 2.07 5.39L2.26 5.39L6.28 13.35C6.33 13.43 6.38 13.51 6.43 13.59C6.49 13.66 6.56 13.73 6.63 13.79C6.7 13.85 6.78 13.91 6.86 13.96C6.89 13.97 6.92 13.99 6.96 14.01C6.9 14.35 6.87 14.69 6.88 15.03C6.88 15.41 6.93 15.77 7.01 16.11C7.14 16.6 7.35 17 7.64 17.31C7.84 17.52 8.06 17.68 8.3 17.78C8.5 17.86 8.72 17.89 8.95 17.89C9.18 17.89 9.4 17.86 9.6 17.78C9.84 17.68 10.06 17.52 10.26 17.31C10.55 17 10.76 16.6 10.89 16.11C10.97 15.77 11.02 15.41 11.02 15.02C11.03 14.69 11 14.34 10.94 14C10.97 13.98 11 13.97 11.04 13.95C11.12 13.9 11.19 13.85 11.26 13.79C11.33 13.73 11.4 13.66 11.45 13.58C11.51 13.51 11.56 13.43 11.6 13.35L15.63 5.39L15.82 5.39C15.96 5.39 16.09 5.38 16.22 5.36C16.36 5.33 16.49 5.29 16.61 5.24C16.74 5.18 16.86 5.12 16.97 5.05C17.08 4.97 17.19 4.88 17.29 4.79C17.38 4.69 17.47 4.59 17.55 4.47C17.62 4.36 17.68 4.24 17.74 4.11C17.79 3.99 17.83 3.86 17.85 3.72C17.88 3.59 17.89 3.46 17.89 3.32L17.89 0.82C17.89 0.77 17.89 0.71 17.88 0.66C17.87 0.61 17.85 0.55 17.83 0.5C17.81 0.45 17.79 0.41 17.75 0.36C17.73 0.32 17.69 0.28 17.65 0.24C17.61 0.2 17.57 0.16 17.53 0.13C17.48 0.1 17.44 0.08 17.39 0.06C17.33 0.04 17.28 0.02 17.23 0.01C17.18 0 17.12 0 17.07 0C17.01 0 16.96 0 16.91 0.01C16.86 0.02 16.8 0.04 16.75 0.06C16.7 0.08 16.66 0.1 16.61 0.13C16.57 0.16 16.52 0.2 16.49 0.24C16.45 0.28 16.41 0.32 16.38 0.36C16.35 0.41 16.33 0.45 16.31 0.5C16.29 0.55 16.27 0.61 16.26 0.66C16.25 0.71 16.25 0.77 16.25 0.82L16.25 3.32C16.25 3.38 16.23 3.43 16.21 3.48C16.19 3.53 16.16 3.58 16.12 3.62C16.08 3.66 16.03 3.69 15.98 3.71C15.93 3.73 15.88 3.75 15.82 3.75L2.07 3.75C2.01 3.75 1.96 3.73 1.91 3.71C1.86 3.69 1.81 3.66 1.77 3.62C1.73 3.58 1.7 3.53 1.67 3.48C1.66 3.43 1.64 3.38 1.64 3.32L1.64 0.82C1.64 0.77 1.64 0.71 1.63 0.66C1.62 0.61 1.6 0.55 1.58 0.5C1.56 0.45 1.54 0.41 1.5 0.36ZM15.5 5.19L15.82 5.19C16.32 5.19 16.79 5 17.15 4.65C17.5 4.29 17.69 3.82 17.69 3.32L17.69 0.82C17.69 0.65 17.63 0.5 17.51 0.38C17.39 0.26 17.24 0.19 17.07 0.19C16.9 0.19 16.75 0.26 16.63 0.38C16.51 0.5 16.44 0.65 16.44 0.82L16.44 3.32C16.44 3.49 16.38 3.64 16.26 3.76C16.14 3.88 15.99 3.94 15.82 3.94L2.07 3.94C1.9 3.94 1.75 3.88 1.63 3.76C1.51 3.64 1.44 3.49 1.44 3.32L1.44 0.82C1.44 0.65 1.38 0.5 1.26 0.38C1.14 0.26 0.99 0.19 0.82 0.19C0.65 0.19 0.5 0.26 0.38 0.38C0.26 0.5 0.19 0.65 0.19 0.82L0.19 3.32C0.19 3.82 0.39 4.29 0.74 4.65C1.09 5 1.57 5.19 2.07 5.19L2.38 5.19L6.46 13.26C6.61 13.55 6.87 13.78 7.18 13.88C7.03 14.66 7.04 15.42 7.21 16.06C7.42 16.85 7.96 17.7 8.95 17.7C9.94 17.7 10.48 16.85 10.69 16.06C10.86 15.42 10.87 14.66 10.72 13.88C11.02 13.77 11.28 13.55 11.42 13.26L15.5 5.19ZM13.88 5.19L3.79 5.19L3.89 5.39L7.58 12.7L10.31 12.7L14 5.39L14.1 5.19L13.88 5.19ZM13.78 5.39L10.19 12.5L7.7 12.5L4.11 5.39L13.78 5.39ZM8.45 13.95L9.45 13.95C9.62 14.63 9.61 15.27 9.48 15.74C9.33 16.35 9.07 16.45 8.95 16.45C8.83 16.45 8.58 16.35 8.42 15.74C8.29 15.27 8.29 14.63 8.45 13.95ZM8.61 14.14C8.56 14.41 8.53 14.67 8.53 14.92C8.52 15.21 8.55 15.46 8.61 15.69C8.67 15.92 8.75 16.09 8.84 16.18C8.89 16.22 8.92 16.25 8.95 16.25C8.98 16.25 9.02 16.22 9.06 16.18C9.15 16.09 9.23 15.92 9.29 15.69C9.35 15.46 9.38 15.21 9.38 14.92C9.37 14.67 9.35 14.41 9.29 14.14L8.61 14.14Z" fill="currentColor" fill-opacity="1.000000" fill-rule="evenodd"/>
</svg>
