<svg fill="none" xmlns="http://www.w3.org/2000/svg">
    <path
        d="M4.28784 8.4709C4.67595 9.16087 5.2068 9.74177 5.8789 10.2134C5.19912 10.4834 4.5855 10.84 4.03857 11.2837C3.44551 11.7647 2.93134 12.3151 2.49628 12.9347C2.06063 13.5552 1.72733 14.2318 1.49643 14.9641C1.2654 15.6968 1.15 16.4589 1.15 17.25V17.35H1.25H2.5H2.6V17.25C2.6 16.6859 2.6737 16.1416 2.82089 15.6168C2.96836 15.0911 3.17658 14.6011 3.44544 14.1466C3.71475 13.6914 4.03531 13.2746 4.40725 12.8963C4.77859 12.5185 5.19136 12.1986 5.64571 11.9362C6.10044 11.6736 6.59073 11.4685 7.11685 11.3209C7.64162 11.1737 8.18591 11.1 8.75 11.1C9.33939 11.1 9.91242 11.1833 10.4694 11.3497C11.0266 11.5162 11.5518 11.7596 12.0451 12.08L12.139 12.1409L12.1891 12.0408C12.2847 11.8495 12.3898 11.6713 12.5041 11.5061C12.6186 11.3407 12.746 11.1815 12.8862 11.0285L12.9645 10.9431L12.8685 10.8781C12.6436 10.726 12.412 10.5903 12.1736 10.4711C11.9935 10.381 11.8095 10.2967 11.6218 10.218C11.9393 10.0043 12.221 9.76346 12.4664 9.49524C12.7514 9.18372 12.9999 8.84242 13.2118 8.47149C13.4247 8.09901 13.5843 7.70322 13.6907 7.28438C13.7969 6.86606 13.85 6.43786 13.85 6C13.85 5.29696 13.7173 4.63255 13.4514 4.00772C13.1861 3.38421 12.8207 2.8426 12.3554 2.38386C11.8905 1.92565 11.3494 1.56394 10.7329 1.29876C10.1143 1.03273 9.45304 0.9 8.75 0.9C8.04696 0.9 7.38255 1.03273 6.75772 1.29861C6.13421 1.56393 5.5926 1.92925 5.13386 2.39464C4.67565 2.8595 4.31394 3.40059 4.04876 4.01713C3.78273 4.63566 3.65 5.29696 3.65 6L3.65 6.00074C3.65663 6.90205 3.8689 7.72612 4.28784 8.4709ZM12.4 6L12.4 6.00125C12.4063 6.50838 12.3113 6.98235 12.1156 7.42435C11.9186 7.86929 11.6552 8.25606 11.3258 8.58554C10.9965 8.91476 10.6101 9.17463 10.1657 9.36512C9.72287 9.55489 9.2513 9.65 8.75 9.65C8.24201 9.65 7.76721 9.55483 7.32455 9.36512C6.88049 9.17481 6.4943 8.91195 6.16513 8.57645C5.83527 8.24024 5.57518 7.85337 5.38468 7.41521C5.19517 6.97935 5.1 6.508 5.1 6C5.1 5.50539 5.19504 5.03362 5.38508 4.58384C5.57545 4.1333 5.83829 3.74407 6.17355 3.41513C6.50976 3.08527 6.89663 2.82518 7.33479 2.63468C7.77065 2.44517 8.242 2.35 8.75 2.35001L8.75128 2.34999C9.24499 2.34366 9.71593 2.43851 10.1651 2.63461C10.6165 2.83171 11.0063 3.09499 11.3355 3.42423C11.6648 3.75345 11.9246 4.13985 12.1151 4.58431C12.3049 5.02713 12.4 5.4987 12.4 6ZM18.7053 21.0894L18.85 21.1618V21V16.0335C19.0548 15.7589 19.2095 15.4617 19.3138 15.1424C19.4213 14.8132 19.475 14.474 19.475 14.125C19.475 13.6818 19.3876 13.2641 19.2123 12.8732C19.0384 12.4852 18.8072 12.1432 18.5188 11.8481C18.2295 11.552 17.8898 11.3201 17.5005 11.1523C17.1099 10.9839 16.6927 10.9 16.25 10.9C15.8068 10.9 15.3861 10.9874 14.989 11.1624C14.5942 11.3364 14.2517 11.5678 13.9625 11.857C13.6733 12.1463 13.4449 12.4857 13.2773 12.8745C13.1089 13.2651 13.025 13.6823 13.025 14.125L13.025 14.1269C13.0317 14.4753 13.0887 14.8139 13.196 15.1424C13.3001 15.4613 13.4515 15.7581 13.65 16.0326V21V21.1618L13.7947 21.0894L16.25 19.8618L18.7053 21.0894ZM16.2969 18.2652L16.2486 18.2396L16.201 18.2664C15.9947 18.3824 15.7886 18.4887 15.5826 18.5852C15.4217 18.6606 15.2608 18.738 15.1 18.8172V17.1369C15.4628 17.279 15.8463 17.35 16.25 17.35C16.6537 17.35 17.0372 17.279 17.4 17.1369V18.8132C17.2392 18.7301 17.0783 18.6509 16.9174 18.5755C16.7107 18.4785 16.5038 18.3751 16.2969 18.2652ZM15.557 12.4884C15.7718 12.3963 16.0024 12.35 16.25 12.35C16.4976 12.35 16.7282 12.3963 16.943 12.4884C17.1596 12.5812 17.3475 12.7076 17.5074 12.8676C17.6674 13.0275 17.7938 13.2154 17.8866 13.432C17.9787 13.6468 18.025 13.8774 18.025 14.125C18.025 14.3726 17.9787 14.6032 17.8866 14.818C17.7938 15.0346 17.6674 15.2225 17.5074 15.3824C17.3475 15.5424 17.1596 15.6688 16.943 15.7616C16.7282 15.8537 16.4976 15.9 16.25 15.9C16.0024 15.9 15.7718 15.8537 15.557 15.7616C15.3404 15.6688 15.1525 15.5424 14.9926 15.3824C14.8326 15.2225 14.7062 15.0346 14.6134 14.818C14.5213 14.6032 14.475 14.3726 14.475 14.125C14.475 13.8774 14.5213 13.6468 14.6134 13.432C14.7062 13.2154 14.8326 13.0275 14.9926 12.8676C15.1525 12.7076 15.3404 12.5812 15.557 12.4884Z"
        fill="currentColor" stroke="#9CA3AF" stroke-width="0.2" />
</svg>