<svg width="18.937500" height="17.343750" viewBox="0 0 18.9375 17.3438" fill="none" xmlns="http://www.w3.org/2000/svg" xmlns:xlink="http://www.w3.org/1999/xlink">
	<desc>
			Created with Pixso.
	</desc>
	<defs/>
	<path id="Vector" d="M18.21 15.93L16.53 15.93L16.53 9.78C16.53 8.78 15.71 8 14.75 8L12.93 8C11.93 8 11.15 8.81 11.15 9.78L11.15 15.93L9.28 15.93L9.28 5.06C9.28 4.06 8.46 3.28 7.5 3.28L5.68 3.28C4.68 3.28 3.9 4.09 3.9 5.06L3.9 15.93L1.43 15.93L1.43 0.71C1.43 0.34 1.12 0 0.71 0C0.31 0 0 0.31 0 0.71L0 16C0 16.71 0.59 17.34 1.34 17.34L18.21 17.34C18.59 17.34 18.93 17.03 18.93 16.62C18.93 16.21 18.59 15.93 18.21 15.93ZM5.31 15.93L5.31 5.06C5.31 4.84 5.5 4.68 5.68 4.68L7.5 4.68C7.71 4.68 7.87 4.87 7.87 5.06L7.87 15.93L5.31 15.93ZM12.56 15.93L12.56 9.78C12.56 9.56 12.75 9.4 12.93 9.4L14.75 9.4C14.96 9.4 15.12 9.59 15.12 9.78L15.12 15.93L12.56 15.93Z" fill="#9CA3AF" fill-opacity="1.000000" fill-rule="nonzero"/>
</svg>
