<svg width="20.000000" height="20.000000" viewBox="0 0 20 20" fill="none" xmlns="http://www.w3.org/2000/svg" xmlns:xlink="http://www.w3.org/1999/xlink">
	<desc>
			Created with Pixso.
	</desc>
	<defs/>
	<rect id="database-4" rx="0.000000" width="19.000000" height="19.000000" transform="translate(0.500000 0.500000)" fill="#FFFFFF" fill-opacity="0"/>
	<path id="Vector" d="M19.25 15.53C19.09 15.37 18.93 15.18 18.78 15.03C18.5 14.75 18.21 14.43 17.93 14.15C17.68 13.9 17.46 13.59 17.09 13.59C16.9 13.59 16.78 13.65 16.65 13.78C16.65 13.78 16.62 13.78 16.62 13.81L14.93 15.53C14.65 15.81 14.65 16.25 14.93 16.53C15.06 16.65 15.25 16.71 15.43 16.71C15.62 16.71 15.81 16.65 15.93 16.5L16.4 16L16.4 18.09C16.4 18.46 16.71 18.81 17.12 18.81C17.53 18.81 17.84 18.5 17.84 18.09L17.84 16.03L18.28 16.5C18.56 16.78 19 16.78 19.28 16.53C19.53 16.25 19.53 15.81 19.25 15.53Z" fill="currentColor" fill-opacity="1.000000" fill-rule="nonzero"/>
	<path id="Vector" d="M12.12 13.37C11.18 13.5 10.18 13.59 9.15 13.59C4.81 13.59 1.93 12.31 1.93 11.46L1.93 10.31C3.56 11.31 6.37 11.81 9.15 11.81C11.93 11.81 14.74 11.31 16.37 10.31L16.37 11.12C16.37 11.5 16.68 11.84 17.09 11.84C17.49 11.84 17.81 11.53 17.81 11.12L17.81 4.78L17.81 4.75C17.81 2.43 13.46 1.21 9.18 1.21C4.9 1.18 0.62 2.37 0.56 4.65C0.56 4.68 0.56 4.68 0.56 4.71L0.56 14.65C0.56 16.96 4.99 18.18 9.18 18.18C9.93 18.18 10.65 18.15 11.34 18.09C11.71 18.06 11.99 17.71 11.96 17.31C11.93 16.93 11.59 16.65 11.18 16.68C10.53 16.75 9.84 16.78 9.15 16.78C4.68 16.78 1.93 15.4 1.93 14.65L1.93 13.5C3.56 14.5 6.37 15 9.15 15C10.24 15 11.31 14.93 12.31 14.78C12.68 14.71 12.96 14.37 12.9 13.96C12.84 13.56 12.49 13.34 12.12 13.37ZM9.15 10.4C4.81 10.4 1.93 9.12 1.93 8.28C1.93 8.28 1.93 8.28 1.93 8.25L1.93 6.75C3.56 7.75 6.37 8.25 9.15 8.25C11.93 8.25 14.74 7.75 16.37 6.75L16.37 8.28C16.34 9.15 13.49 10.4 9.15 10.4ZM9.15 2.59C13.46 2.59 16.34 3.87 16.37 4.71C16.34 5.56 13.46 6.84 9.15 6.84C4.81 6.84 1.93 5.56 1.93 4.71C1.96 3.87 4.84 2.59 9.15 2.59Z" fill="currentColor" fill-opacity="1.000000" fill-rule="nonzero"/>
</svg>
