<svg width="18.906250" height="13.718750" viewBox="0 0 18.9062 13.7188" fill="none" xmlns="http://www.w3.org/2000/svg" xmlns:xlink="http://www.w3.org/1999/xlink">
	<desc>
			Created with Pixso.
	</desc>
	<defs/>
	<path id="Vector" d="M17.43 5.93L15.28 5.93C14.9 5.93 14.59 6.25 14.59 6.62C14.59 7 14.9 7.34 15.28 7.34L17.43 7.34C17.5 7.34 17.53 7.37 17.53 7.43L17.53 10.96C17.53 11.71 16.93 12.31 16.18 12.31L2.78 12.31C2.03 12.31 1.43 11.71 1.43 10.96L1.43 7.43C1.43 7.37 1.46 7.34 1.53 7.34L3.68 7.34C4.06 7.34 4.37 7.03 4.37 6.62C4.37 6.21 4.06 5.93 3.68 5.93L1.5 5.93C0.68 5.93 0 6.62 0 7.43L0 10.96C0 12.5 1.25 13.71 2.75 13.71L16.15 13.71C17.68 13.71 18.9 12.46 18.9 10.96L18.9 7.43C18.9 6.62 18.25 5.93 17.43 5.93Z" fill="currentColor" fill-opacity="1.000000" fill-rule="nonzero"/>
	<path id="Vector" d="M8.96 8.43C9.09 8.56 9.28 8.62 9.46 8.62C9.65 8.62 9.81 8.56 9.96 8.43L13.15 5.31C13.43 5.03 13.43 4.59 13.15 4.31C12.87 4.03 12.43 4.03 12.15 4.31L10.18 6.25L10.18 0.68C10.18 0.31 9.87 0 9.5 0C9.12 0 8.81 0.31 8.81 0.68L8.81 6.28L6.81 4.31C6.53 4.03 6.09 4.03 5.81 4.31C5.53 4.59 5.53 5.03 5.81 5.31L8.96 8.43Z" fill="currentColor" fill-opacity="1.000000" fill-rule="nonzero"/>
</svg>
