<svg width="20.000000" height="20.000000" viewBox="0 0 20 20" fill="none" xmlns="http://www.w3.org/2000/svg" xmlns:xlink="http://www.w3.org/1999/xlink">
	<desc>
			Created with Pixso.
	</desc>
	<defs>
		<clipPath id="clip61_7267">
			<rect id="exit" rx="0.000000" width="19.000000" height="19.000000" transform="translate(0.500000 0.500000)" fill="white" fill-opacity="0"/>
		</clipPath>
	</defs>
	<rect id="exit" rx="0.000000" width="19.000000" height="19.000000" transform="translate(0.500000 0.500000)" fill="#FFFFFF" fill-opacity="0"/>
	<g clip-path="url(#clip61_7267)">
		<path id="Vector" d="M14.12 0.56L10.59 0.56C9.78 0.56 9.09 1.25 9.09 2.06L9.09 4.21C9.09 4.59 9.4 4.9 9.78 4.9C10.15 4.9 10.5 4.59 10.5 4.21L10.5 2.03C10.5 1.96 10.53 1.93 10.59 1.93L14.12 1.93C14.87 1.93 15.46 2.53 15.46 3.28L15.46 16.68C15.46 17.43 14.87 18.03 14.12 18.03L10.59 18.03C10.53 18.03 10.5 18 10.5 17.93L10.5 15.78C10.5 15.4 10.18 15.09 9.78 15.09C9.37 15.09 9.09 15.4 9.09 15.78L9.09 17.93C9.09 18.75 9.78 19.43 10.59 19.43L14.12 19.43C15.65 19.43 16.87 18.18 16.87 16.68L16.87 3.31C16.87 1.78 15.62 0.56 14.12 0.56Z" fill="#111928" fill-opacity="1.000000" fill-rule="nonzero"/>
		<path id="Vector" d="M14.12 0.56L10.59 0.56C9.78 0.56 9.09 1.25 9.09 2.06L9.09 4.21C9.09 4.59 9.4 4.9 9.78 4.9C10.15 4.9 10.5 4.59 10.5 4.21L10.5 2.03C10.5 1.96 10.53 1.93 10.59 1.93L14.12 1.93C14.87 1.93 15.46 2.53 15.46 3.28L15.46 16.68C15.46 17.43 14.87 18.03 14.12 18.03L10.59 18.03C10.56 18.03 10.53 18.02 10.52 18C10.5 17.99 10.5 17.96 10.5 17.93L10.5 15.78C10.5 15.4 10.18 15.09 9.78 15.09C9.37 15.09 9.09 15.4 9.09 15.78L9.09 17.93C9.09 18.75 9.78 19.43 10.59 19.43L14.12 19.43C15.65 19.43 16.87 18.18 16.87 16.68L16.87 3.31C16.87 1.78 15.62 0.56 14.12 0.56Z" fill="#111928" fill-opacity="1.000000" fill-rule="evenodd"/>
		<path id="Vector" d="M5.5 10.68L11.09 10.68C11.46 10.68 11.78 10.37 11.78 10C11.78 9.62 11.46 9.31 11.09 9.31L5.53 9.31L7.46 7.34C7.75 7.06 7.75 6.62 7.46 6.34C7.18 6.06 6.75 6.06 6.46 6.34L3.34 9.53C3.06 9.81 3.06 10.25 3.34 10.53L6.46 13.71C6.59 13.84 6.78 13.93 6.96 13.93C7.15 13.93 7.31 13.87 7.46 13.75C7.75 13.46 7.75 13.03 7.46 12.75L5.5 10.68Z" fill="#111928" fill-opacity="1.000000" fill-rule="nonzero"/>
	</g>
</svg>
