<svg width="18.906250" height="13.773438" viewBox="0 0 18.9062 13.7734" fill="none" xmlns="http://www.w3.org/2000/svg" xmlns:xlink="http://www.w3.org/1999/xlink">
	<desc>
			Created with Pixso.
	</desc>
	<defs/>
	<path id="Vector" d="M17.43 5.99L15.28 5.99C14.9 5.99 14.59 6.3 14.59 6.67C14.59 7.05 14.9 7.39 15.28 7.39L17.43 7.39C17.5 7.39 17.53 7.42 17.53 7.49L17.53 11.02C17.53 11.77 16.93 12.36 16.18 12.36L2.78 12.36C2.03 12.36 1.43 11.77 1.43 11.02L1.43 7.49C1.43 7.42 1.46 7.39 1.53 7.39L3.68 7.39C4.06 7.39 4.37 7.08 4.37 6.67C4.37 6.27 4.06 5.99 3.68 5.99L1.5 5.99C0.68 5.99 0 6.67 0 7.49L0 11.02C0 12.55 1.25 13.77 2.75 13.77L16.15 13.77C17.68 13.77 18.9 12.52 18.9 11.02L18.9 7.49C18.9 6.67 18.25 5.99 17.43 5.99Z" fill="currentColor" fill-opacity="1.000000" fill-rule="nonzero"/>
	<path id="Vector" d="M6.78 4.36L8.78 2.39L8.78 7.99C8.78 8.36 9.09 8.67 9.46 8.67C9.84 8.67 10.15 8.36 10.15 7.99L10.15 2.42L12.12 4.36C12.25 4.49 12.43 4.55 12.62 4.55C12.81 4.55 13 4.49 13.12 4.33C13.4 4.05 13.4 3.61 13.12 3.33L9.93 0.21C9.65 -0.08 9.21 -0.08 8.93 0.21L5.75 3.33C5.46 3.61 5.46 4.05 5.75 4.33C6.06 4.61 6.5 4.61 6.78 4.36Z" fill="currentColor" fill-opacity="1.000000" fill-rule="nonzero"/>
</svg>
