<svg width="18" height="18" viewBox="0 0 18 18" fill="none" xmlns="http://www.w3.org/2000/svg">
    <path
        d="M17.4094 6.4125L16.3125 4.52813C16.3125 4.5 16.2844 4.5 16.2844 4.47188C16.2563 4.44375 16.2281 4.41563 16.2 4.3875L16.1719 4.35938C16.1438 4.33125 16.0875 4.30313 16.0313 4.275C16.0313 4.275 16.0313 4.275 16.0031 4.275L9.61877 1.32188C9.22502 1.15312 8.77502 1.15312 8.38127 1.32188L1.96877 4.275C1.96877 4.275 1.96877 4.275 1.94064 4.275C1.91252 4.275 1.91252 4.30313 1.88439 4.30313C1.85627 4.30313 1.85627 4.33125 1.82814 4.33125L1.80002 4.35938C1.77189 4.3875 1.77189 4.3875 1.74377 4.41563C1.74377 4.41563 1.74377 4.41563 1.71564 4.44375C1.71564 4.47188 1.71564 4.5 1.68752 4.52813L0.590642 6.4125C0.506267 6.55313 0.478142 6.75 0.534392 6.91875C0.562517 7.05938 0.675017 7.2 0.843767 7.28438L1.60314 7.65V12.2906C1.60314 12.8531 1.91252 13.3594 2.41877 13.6125L8.46564 16.65C8.63439 16.7344 8.83127 16.7906 9.00002 16.7906C9.16877 16.7906 9.36564 16.7344 9.53439 16.65L15.5813 13.6125C16.0875 13.3594 16.3969 12.8531 16.3969 12.2906V7.67813L17.1563 7.28438C17.2969 7.2 17.4375 7.05938 17.4656 6.89063C17.5219 6.72188 17.5219 6.55313 17.4094 6.4125ZM2.02502 6.46875L2.47502 5.68125L8.07189 8.40938L7.56564 9.225L2.02502 6.46875ZM15.4688 5.70938L15.525 5.68125L16.0031 6.46875L10.4625 9.30938L9.92814 8.40938L15.4688 5.70938ZM8.91564 2.475C8.97189 2.44688 9.02814 2.44688 9.08439 2.475L14.2875 4.86563L9.00002 7.425L3.71252 4.86563L8.91564 2.475ZM2.86877 12.3188V8.29688L7.50939 10.6031C7.59377 10.6594 7.70627 10.6594 7.79064 10.6594C7.98752 10.6594 8.21252 10.5469 8.32502 10.3781L8.38127 10.2938V15.2156L2.98127 12.5156C2.89689 12.4594 2.86877 12.375 2.86877 12.3188ZM15.1313 12.3188C15.1313 12.4031 15.075 12.4594 15.0188 12.5156L9.61877 15.2156V10.4063L9.67502 10.4906C9.78752 10.6875 10.0125 10.8 10.2094 10.8C10.2938 10.8 10.4063 10.7719 10.4906 10.7438L15.1031 8.35313V12.3188H15.1313Z"
        fill="currentColor" />
</svg>