<svg viewBox="0 0 20 20" fill="none" xmlns="http://www.w3.org/2000/svg">
    <path
        d="M3 4H4.66667L5 5.66667M5 5.66667H18L14.6667 12.3333H6.33333M5 5.66667L6.33333 12.3333M6.33333 12.3333L4.4225 14.2442C3.8975 14.7692 4.26917 15.6667 5.01167 15.6667H14.6667M14.6667 15.6667C14.2246 15.6667 13.8007 15.8423 13.4882 16.1548C13.1756 16.4674 13 16.8913 13 17.3333C13 17.7754 13.1756 18.1993 13.4882 18.5118C13.8007 18.8244 14.2246 19 14.6667 19C15.1087 19 15.5326 18.8244 15.8452 18.5118C16.1577 18.1993 16.3333 17.7754 16.3333 17.3333C16.3333 16.8913 16.1577 16.4674 15.8452 16.1548C15.5326 15.8423 15.1087 15.6667 14.6667 15.6667ZM8 17.3333C8 17.7754 7.8244 18.1993 7.51184 18.5118C7.19928 18.8244 6.77536 19 6.33333 19C5.89131 19 5.46738 18.8244 5.15482 18.5118C4.84226 18.1993 4.66667 17.7754 4.66667 17.3333C4.66667 16.8913 4.84226 16.4674 5.15482 16.1548C5.46738 15.8423 5.89131 15.6667 6.33333 15.6667C6.77536 15.6667 7.19928 15.8423 7.51184 16.1548C7.8244 16.4674 8 16.8913 8 17.3333Z"
        stroke="currentColor" stroke-width="1.6" stroke-linecap="round" stroke-linejoin="round" />
</svg>