<svg width="18.904541" height="18.812500" viewBox="0 0 18.9045 18.8125" fill="none" xmlns="http://www.w3.org/2000/svg" xmlns:xlink="http://www.w3.org/1999/xlink">
	<desc>
			Created with Pixso.
	</desc>
	<defs/>
	<path id="Vector" d="M18.5 14.09L17.71 13.68C17.71 13.56 17.75 13.43 17.75 13.28C17.75 13.15 17.75 13 17.71 12.87L18.5 12.43C18.84 12.21 19 11.81 18.84 11.4C18.84 11.37 18.81 11.34 18.81 11.31L17.84 9.68C17.62 9.34 17.21 9.21 16.84 9.34C16.81 9.34 16.78 9.37 16.75 9.37L15.96 9.81C15.81 9.68 15.65 9.56 15.46 9.43L15.46 8.96C15.46 8.34 14.96 7.84 14.34 7.84L12.59 7.84C12.06 7.84 11.59 8.21 11.46 8.75C10.68 7.93 9.78 7.37 8.81 7.03C9.9 6.37 10.65 5.15 10.65 3.78C10.65 1.68 8.96 0 6.87 0C4.78 0 3.09 1.71 3.09 3.78C3.09 5.15 3.84 6.37 4.93 7.03C3.81 7.4 2.81 8.09 2 9.06C0.75 10.53 0.06 12.56 0 14.81C0 15.09 0.15 15.34 0.37 15.46C1.15 15.84 3.9 17.12 6.84 17.12C7.56 17.12 8.28 17.06 9.03 16.93C9.25 17.25 9.65 17.37 10 17.21C10.03 17.21 10.06 17.18 10.09 17.18L10.87 16.75C11.03 16.87 11.18 17 11.4 17.12L11.4 17.68C11.4 18.31 11.9 18.81 12.53 18.81L14.25 18.81C14.87 18.81 15.37 18.31 15.37 17.68L15.37 17.09C15.56 16.96 15.71 16.84 15.87 16.71L16.59 17.12C17.09 17.4 17.56 17.21 17.78 16.87L18.75 15.25C18.87 15.06 18.9 14.84 18.84 14.62C18.84 14.37 18.68 14.18 18.5 14.09ZM6.87 1.4C8.18 1.4 9.25 2.46 9.25 3.78C9.25 5.09 8.18 6.15 6.87 6.15C5.56 6.15 4.5 5.09 4.5 3.78C4.5 2.46 5.56 1.4 6.87 1.4ZM1.43 14.4C1.56 12.68 2.12 11.12 3.06 10C4.06 8.81 5.4 8.15 6.87 8.15C8.09 8.15 9.21 8.62 10.15 9.46C9.68 9.25 9.25 9.43 9.03 9.75L8.09 11.37C7.96 11.56 7.93 11.78 8 12C8.06 12.21 8.18 12.4 8.4 12.5L9.18 12.93C9.18 13.06 9.15 13.18 9.15 13.34C9.15 13.46 9.15 13.59 9.15 13.71L8.34 14.15C8 14.37 7.84 14.78 8 15.18C8 15.21 8.03 15.25 8.03 15.28L8.25 15.65C7.78 15.71 7.31 15.75 6.84 15.75C4.62 15.68 2.46 14.84 1.43 14.4ZM16.31 12.84C16.34 12.96 16.34 13.12 16.34 13.28C16.34 13.43 16.34 13.59 16.31 13.71C16.25 14.12 16.43 14.56 16.81 14.75L17.28 15.03L16.93 15.62L16.37 15.31C16.03 15.12 15.59 15.15 15.31 15.4C15.21 15.46 15.15 15.53 15.09 15.59C14.93 15.75 14.81 15.81 14.71 15.87C14.34 16.06 14.06 16.46 14.06 16.9L14.06 17.4L12.87 17.4L12.87 16.93C12.87 16.5 12.62 16.09 12.21 15.9C12.09 15.84 11.96 15.75 11.81 15.62C11.75 15.56 11.65 15.5 11.59 15.43C11.28 15.18 10.87 15.15 10.53 15.34L10.15 15.56C10.06 15.46 9.96 15.43 9.84 15.4L9.62 15.06L10.12 14.78C10.46 14.59 10.68 14.18 10.62 13.78C10.59 13.62 10.59 13.46 10.59 13.31C10.59 13.12 10.59 13 10.62 12.87C10.68 12.43 10.5 12.03 10.12 11.84L9.62 11.56L9.96 10.96L10.53 11.28C10.87 11.46 11.31 11.43 11.59 11.18C11.65 11.12 11.75 11.06 11.81 11C11.96 10.84 12.09 10.78 12.21 10.68C12.62 10.5 12.87 10.09 12.87 9.65L12.87 9.25L14.06 9.25L14.06 9.62C14.06 10.06 14.31 10.46 14.71 10.65C14.84 10.71 14.93 10.81 15.09 10.93C15.15 11 15.25 11.06 15.31 11.12C15.62 11.37 16.03 11.4 16.37 11.21L16.93 10.9L17.28 11.5L16.78 11.78C16.43 12 16.21 12.4 16.31 12.84Z" fill="#111928" fill-opacity="1.000000" fill-rule="nonzero"/>
</svg>
