<svg width="20.000000" height="20.000000" viewBox="0 0 20 20" fill="none" xmlns="http://www.w3.org/2000/svg" xmlns:xlink="http://www.w3.org/1999/xlink">
	<desc>
			Created with Pixso.
	</desc>
	<defs/>
	<rect id="warning" rx="0.000000" width="19.000000" height="19.000000" transform="translate(0.500000 0.500000)" fill="#FFFFFF" fill-opacity="0"/>
	<path id="Vector" d="M18.9 12.9L12.21 2.14C11.68 1.42 10.87 1.02 10 1.02C9.09 1.02 8.28 1.42 7.78 2.14L1.09 12.9C0.46 13.75 0.37 14.84 0.84 15.78C1.31 16.71 2.25 17.31 3.31 17.31L16.68 17.31C17.75 17.31 18.68 16.71 19.15 15.78C19.62 14.87 19.53 13.75 18.9 12.9ZM17.9 15.15C17.65 15.62 17.21 15.9 16.68 15.9L3.31 15.9C2.78 15.9 2.34 15.62 2.09 15.15C1.87 14.68 1.9 14.15 2.21 13.75L8.9 2.98C9.15 2.64 9.56 2.42 10 2.42C10.43 2.42 10.84 2.61 11.09 2.98L17.78 13.75C18.09 14.15 18.12 14.68 17.9 15.15Z" fill="currentColor" fill-opacity="1.000000" fill-rule="nonzero"/>
	<path id="Vector" d="M10 6.83C9.62 6.83 9.28 7.14 9.28 7.55L9.28 10.95C9.28 11.33 9.59 11.67 10 11.67C10.4 11.67 10.71 11.36 10.71 10.95L10.71 7.52C10.71 7.14 10.37 6.83 10 6.83Z" fill="currentColor" fill-opacity="1.000000" fill-rule="nonzero"/>
	<path id="Vector" d="M10 12.5C9.62 12.5 9.28 12.81 9.28 13.21L9.28 13.37C9.28 13.75 9.59 14.09 10 14.09C10.4 14.09 10.71 13.78 10.71 13.37L10.71 13.18C10.71 12.81 10.37 12.5 10 12.5Z" fill="currentColor" fill-opacity="1.000000" fill-rule="nonzero"/>
</svg>
