<svg width="19" height="18" viewBox="0 0 19 18" fill="none" xmlns="http://www.w3.org/2000/svg">
    <g clip-path="url(#clip0_1429_5189)">
        <path
            d="M16.8688 9.00005C17.2063 8.32505 17.4876 7.65005 17.6563 6.97505C18.3032 4.72505 18.0219 2.84067 16.8407 1.65942C15.2376 0.056297 12.4251 0.140672 9.50007 1.6313C8.82507 1.2938 8.15007 1.01255 7.50319 0.843797C5.25319 0.196922 3.36882 0.478172 2.18757 1.65942C1.00632 2.84067 0.696942 4.72505 1.37194 6.97505C1.56882 7.65005 1.82194 8.32505 2.15944 8.97192C0.640692 11.925 0.556317 14.7375 2.15944 16.3407C2.91882 17.1 4.01569 17.4938 5.28132 17.4938C5.95632 17.4938 6.71569 17.3813 7.47507 17.1563C8.15007 16.9594 8.82507 16.7063 9.50007 16.3688C10.1751 16.7063 10.8501 16.9875 11.5251 17.1563C12.3126 17.3813 13.0438 17.4938 13.7188 17.4938C14.9844 17.4938 16.0813 17.1 16.8407 16.3407C18.0219 15.1594 18.3313 13.275 17.6563 11.025C17.4876 10.35 17.2063 9.67505 16.8688 9.00005ZM11.8626 2.05317C12.5376 1.8563 13.1563 1.77192 13.7188 1.77192C14.6469 1.77192 15.4063 2.05317 15.9407 2.55942C16.7844 3.40317 16.9532 4.86567 16.4469 6.63755C16.3626 6.97505 16.2219 7.31255 16.0813 7.65005C15.4344 6.63755 14.6469 5.65317 13.7188 4.75317C12.8188 3.85317 11.8344 3.03755 10.8219 2.39067C11.1876 2.25005 11.5251 2.13755 11.8626 2.05317ZM15.4344 9.00005C14.7876 10.1532 13.9157 11.3063 12.8469 12.3469C11.7782 13.3875 10.6532 14.2875 9.50007 14.9344C8.34694 14.2875 7.19382 13.4157 6.15319 12.3469C5.11257 11.3063 4.21257 10.1532 3.56569 9.00005C4.21257 7.84692 5.08444 6.6938 6.15319 5.65317C7.19382 4.61255 8.34694 3.71255 9.50007 3.06567C10.6532 3.71255 11.8063 4.58442 12.8469 5.65317C13.9157 6.6938 14.7876 7.84692 15.4344 9.00005ZM2.55319 6.63755C2.01882 4.83755 2.21569 3.40317 3.05944 2.55942C3.59382 2.02505 4.35319 1.77192 5.28132 1.77192C5.84382 1.77192 6.46257 1.8563 7.13757 2.05317C7.47507 2.13755 7.81257 2.25005 8.15007 2.39067C7.16569 3.03755 6.18132 3.82505 5.25319 4.75317C4.32507 5.6813 3.53757 6.66567 2.89069 7.65005C2.75007 7.31255 2.63757 6.97505 2.55319 6.63755ZM7.13757 15.9469C5.33757 16.4532 3.90319 16.2844 3.05944 15.4407C2.21569 14.5969 2.04694 13.1344 2.55319 11.3625C2.63757 11.025 2.75007 10.6875 2.89069 10.35C3.53757 11.3625 4.32507 12.3469 5.25319 13.2469C6.15319 14.1469 7.13757 14.9625 8.15007 15.6094C7.81257 15.75 7.47507 15.8625 7.13757 15.9469ZM15.9407 15.4407C15.0969 16.2844 13.6344 16.4532 11.8626 15.9469C11.5251 15.8625 11.1876 15.7219 10.8501 15.5813C11.8626 14.9344 12.8469 14.1469 13.7469 13.2188C14.6469 12.2907 15.4626 11.3344 16.1094 10.3219C16.2501 10.6594 16.3626 10.9969 16.4751 11.3344C16.9813 13.1625 16.7844 14.5969 15.9407 15.4407Z"
            fill="currentColor" />
        <path
            d="M9.49995 6.7782C8.26245 6.7782 7.27808 7.7907 7.27808 9.00007C7.27808 10.2094 8.29058 11.2219 9.49995 11.2219C10.7093 11.2219 11.7218 10.2094 11.7218 9.00007C11.7218 7.7907 10.7375 6.7782 9.49995 6.7782ZM9.49995 9.95632C8.96558 9.95632 8.5437 9.53445 8.5437 9.00007C8.5437 8.4657 8.96558 8.04382 9.49995 8.04382C10.0343 8.04382 10.4562 8.4657 10.4562 9.00007C10.4562 9.53445 10.0343 9.95632 9.49995 9.95632Z"
            fill="currentColor" />
    </g>
    <defs>
        <clipPath id="clip0_1429_5189">
            <rect width="18" height="18" fill="white" transform="translate(0.5)" />
        </clipPath>
    </defs>
</svg>