<svg width="20.000000" height="20.000000" viewBox="0 0 20 20" fill="none" xmlns="http://www.w3.org/2000/svg" xmlns:xlink="http://www.w3.org/1999/xlink">
	<desc>
			Created with Pixso.
	</desc>
	<defs>
		<clipPath id="clip485_20246">
			<rect id="settings" rx="0.000000" width="19.000000" height="19.000000" transform="translate(0.500000 0.500000)" fill="white" fill-opacity="0"/>
		</clipPath>
	</defs>
	<rect id="settings" rx="0.000000" width="19.000000" height="19.000000" transform="translate(0.500000 0.500000)" fill="#FFFFFF" fill-opacity="0"/>
	<g clip-path="url(#clip485_20246)">
		<path id="Vector" d="M10 12.5C8.62 12.5 7.5 11.38 7.5 10C7.5 8.61 8.62 7.5 10 7.5C11.37 7.5 12.5 8.61 12.5 10C12.5 11.38 11.37 12.5 10 12.5Z" stroke="currentColor" stroke-opacity="1.000000" stroke-width="1.600000" stroke-linejoin="round"/>
		<path id="Vector" d="M16.07 13.3C16.12 13.57 16.25 13.82 16.44 14.01L16.49 14.06C16.64 14.22 16.76 14.4 16.85 14.6C16.93 14.8 16.98 15.02 16.98 15.24C16.98 15.46 16.93 15.68 16.85 15.88C16.76 16.08 16.64 16.27 16.49 16.42C16.33 16.57 16.15 16.7 15.94 16.78C15.74 16.87 15.53 16.91 15.31 16.91C15.09 16.91 14.87 16.87 14.67 16.78C14.46 16.7 14.28 16.57 14.13 16.42L14.08 16.37C13.88 16.18 13.63 16.05 13.36 16C13.09 15.95 12.81 15.98 12.56 16.1C12.32 16.2 12.1 16.38 11.96 16.6C11.81 16.82 11.73 17.09 11.73 17.35L11.73 17.49C11.73 17.94 11.55 18.36 11.24 18.67C10.92 18.99 10.5 19.16 10.06 19.16C9.62 19.16 9.19 18.99 8.88 18.67C8.57 18.36 8.39 17.94 8.39 17.49L8.39 17.42C8.39 17.14 8.3 16.88 8.14 16.65C7.98 16.43 7.75 16.26 7.5 16.16C7.24 16.05 6.96 16.02 6.69 16.07C6.42 16.12 6.17 16.24 5.98 16.44L5.93 16.49C5.77 16.64 5.59 16.76 5.39 16.85C5.18 16.93 4.97 16.98 4.75 16.98C4.53 16.98 4.31 16.93 4.11 16.85C3.91 16.76 3.72 16.64 3.57 16.49C3.41 16.33 3.29 16.15 3.21 15.95C3.12 15.74 3.08 15.53 3.08 15.31C3.08 15.09 3.12 14.87 3.21 14.67C3.29 14.47 3.41 14.28 3.57 14.13L3.62 14.08C3.81 13.88 3.94 13.63 3.99 13.36C4.04 13.09 4 12.81 3.89 12.56C3.79 12.32 3.61 12.1 3.39 11.96C3.17 11.81 2.91 11.73 2.64 11.73L2.5 11.73C2.05 11.73 1.63 11.55 1.32 11.24C1 10.93 0.83 10.5 0.83 10.06C0.83 9.62 1 9.2 1.32 8.88C1.63 8.57 2.05 8.39 2.5 8.39L2.57 8.39C2.84 8.39 3.11 8.3 3.33 8.14C3.56 7.98 3.73 7.75 3.83 7.49C3.94 7.24 3.97 6.96 3.92 6.69C3.87 6.42 3.75 6.17 3.55 5.98L3.5 5.93C3.35 5.77 3.23 5.59 3.14 5.39C3.06 5.18 3.01 4.97 3.01 4.75C3.01 4.53 3.06 4.31 3.14 4.11C3.23 3.91 3.35 3.72 3.5 3.57C3.66 3.41 3.84 3.29 4.04 3.21C4.25 3.12 4.46 3.08 4.68 3.08C4.9 3.08 5.12 3.12 5.32 3.21C5.52 3.29 5.71 3.41 5.86 3.57L5.91 3.62C6.11 3.81 6.35 3.94 6.63 3.99C6.9 4.04 7.17 4.01 7.43 3.89L7.5 3.89C7.74 3.79 7.95 3.61 8.1 3.39C8.25 3.17 8.33 2.9 8.33 2.64L8.33 2.49C8.33 2.05 8.5 1.63 8.82 1.32C9.13 1 9.55 0.83 10 0.83C10.44 0.83 10.86 1 11.17 1.32C11.48 1.63 11.66 2.05 11.66 2.49L11.66 2.57C11.66 2.84 11.74 3.1 11.89 3.32C12.04 3.55 12.25 3.72 12.5 3.83C12.75 3.94 13.02 3.97 13.3 3.92C13.57 3.87 13.82 3.75 14.01 3.55L14.06 3.5C14.21 3.35 14.4 3.23 14.6 3.14C14.8 3.06 15.02 3.01 15.24 3.01C15.46 3.01 15.67 3.06 15.88 3.14C16.08 3.23 16.26 3.35 16.42 3.5C16.57 3.66 16.7 3.84 16.78 4.04C16.87 4.25 16.91 4.46 16.91 4.68C16.91 4.9 16.87 5.12 16.78 5.32C16.7 5.52 16.57 5.71 16.42 5.86L16.37 5.91C16.17 6.11 16.05 6.36 16 6.63C15.95 6.9 15.98 7.18 16.09 7.43L16.09 7.49C16.2 7.74 16.37 7.95 16.6 8.1C16.82 8.25 17.08 8.33 17.35 8.33L17.5 8.33C17.94 8.33 18.36 8.5 18.67 8.82C18.98 9.13 19.16 9.55 19.16 9.99C19.16 10.44 18.98 10.86 18.67 11.17C18.36 11.49 17.94 11.66 17.5 11.66L17.42 11.66C17.15 11.66 16.89 11.74 16.67 11.89C16.44 12.04 16.26 12.25 16.16 12.49C16.05 12.75 16.01 13.03 16.07 13.3Z" stroke="currentColor" stroke-opacity="1.000000" stroke-width="1.600000" stroke-linejoin="round"/>
	</g>
</svg>
