<svg width="18.875000" height="18.913940" viewBox="0 0 18.875 18.9139" fill="none" xmlns="http://www.w3.org/2000/svg" xmlns:xlink="http://www.w3.org/1999/xlink">
	<desc>
			Created with Pixso.
	</desc>
	<defs/>
	<path id="Vector" d="M18.87 3.16C18.87 2.91 18.78 2.66 18.59 2.47C18.21 2.1 17.84 1.72 17.5 1.35C17.15 1 16.84 0.66 16.5 0.35C16.34 0.16 16.15 0.03 15.9 0C15.62 -0.03 15.37 0.03 15.15 0.22L13.03 2.35L1.96 2.35C0.9 2.35 0 3.22 0 4.32L0 16.94C0 18 0.87 18.91 1.96 18.91L14.62 18.91C15.68 18.91 16.59 18.03 16.59 16.94L16.59 5.85L18.62 3.82C18.78 3.63 18.87 3.41 18.87 3.16ZM9.68 10.69C9.65 10.72 9.65 10.72 9.62 10.72L7.37 11.47L8.12 9.22C8.12 9.19 8.15 9.19 8.15 9.16L13.78 3.53L15.34 5.07L9.68 10.69ZM15.15 16.94C15.15 17.25 14.9 17.5 14.59 17.5L1.96 17.5C1.65 17.5 1.4 17.25 1.4 16.94L1.4 4.28C1.4 3.97 1.65 3.72 1.96 3.72L11.59 3.72L7.15 8.19C7 8.35 6.84 8.57 6.78 8.82L5.62 12.32C5.53 12.57 5.59 12.78 5.71 13C5.81 13.13 6 13.32 6.34 13.32L6.46 13.32L10.06 12.13C10.28 12.07 10.5 11.91 10.65 11.75L15.15 7.25L15.15 16.94ZM16.31 4.1L14.75 2.57L15.71 1.6C15.96 1.85 17 2.88 17.25 3.16L16.31 4.1Z" fill="currentColor" fill-opacity="1.000000" fill-rule="nonzero"/>
	<path id="Vector" d="M16.59 5.85L18.62 3.82C18.78 3.63 18.87 3.41 18.87 3.16C18.87 2.91 18.78 2.66 18.59 2.47C18.21 2.1 17.84 1.72 17.5 1.35C17.15 1 16.84 0.66 16.5 0.35C16.34 0.16 16.15 0.03 15.9 0C15.62 -0.03 15.37 0.03 15.15 0.22L13.03 2.35L1.96 2.35C0.9 2.35 0 3.22 0 4.32L0 16.94C0 18 0.87 18.91 1.96 18.91L14.62 18.91C15.68 18.91 16.59 18.03 16.59 16.94L16.59 5.85ZM11.59 3.72L10.6 4.72L7.15 8.19C7 8.35 6.84 8.57 6.78 8.82L5.62 12.32C5.53 12.57 5.59 12.78 5.71 13C5.81 13.13 6 13.32 6.34 13.32L6.46 13.32L10.06 12.13C10.28 12.07 10.5 11.91 10.65 11.75L15.15 7.25L15.15 16.94C15.15 17.25 14.9 17.5 14.59 17.5L1.96 17.5C1.65 17.5 1.4 17.25 1.4 16.94L1.4 4.28C1.4 3.97 1.65 3.72 1.96 3.72L11.59 3.72ZM9.62 10.72C9.65 10.72 9.65 10.72 9.68 10.69L14.63 5.77L15.34 5.07L14.62 4.37L13.78 3.53L8.15 9.16C8.15 9.19 8.12 9.19 8.12 9.22L7.76 10.29L7.37 11.47L8.56 11.08L9.62 10.72ZM15.46 3.27L16.31 4.1L17.25 3.16C17.11 3.01 16.76 2.65 16.42 2.31C16.12 2 15.83 1.71 15.71 1.6L15.45 1.86L15.01 2.3L14.75 2.57L15.46 3.27Z" fill="currentColor" fill-opacity="1.000000" fill-rule="evenodd"/>
</svg>
